<svg xmlns="http://www.w3.org/2000/svg" viewBox="0 0 1280 640" width="1280" height="640" role="img" aria-label="Olondunge">
  <title>Olondunge</title>
  <defs>
    <radialGradient id="seed" cx="50%" cy="50%" r="50%">
      <stop offset="0" stop-color="#FFFFFF"/>
      <stop offset="0.42" stop-color="#EADCFF"/>
      <stop offset="1" stop-color="#8B5CF6"/>
    </radialGradient>
    <linearGradient id="lane0" x1="128.0" y1="107.0" x2="214.66" y2="112.72" gradientUnits="userSpaceOnUse">
      <stop offset="0" stop-color="#A78BFA" stop-opacity="0.55"/>
      <stop offset="0.45" stop-color="#8B5CF6"/>
      <stop offset="1" stop-color="#A78BFA"/>
    </linearGradient>
    <linearGradient id="lane1" x1="146.19" y1="138.5" x2="97.9" y2="210.69" gradientUnits="userSpaceOnUse">
      <stop offset="0" stop-color="#67E8F9" stop-opacity="0.55"/>
      <stop offset="0.45" stop-color="#22D3EE"/>
      <stop offset="1" stop-color="#67E8F9"/>
    </linearGradient>
    <linearGradient id="lane2" x1="109.81" y1="138.5" x2="71.43" y2="60.59" gradientUnits="userSpaceOnUse">
      <stop offset="0" stop-color="#FF8ABF" stop-opacity="0.55"/>
      <stop offset="0.45" stop-color="#FF5FA2"/>
      <stop offset="1" stop-color="#FF8ABF"/>
    </linearGradient>
    <filter id="bloom" x="-75%" y="-75%" width="250%" height="250%" color-interpolation-filters="sRGB">
      <feGaussianBlur in="SourceGraphic" stdDeviation="7" result="wide"/>
      <feGaussianBlur in="SourceGraphic" stdDeviation="2.2" result="tight"/>
      <feMerge><feMergeNode in="wide"/><feMergeNode in="tight"/><feMergeNode in="SourceGraphic"/></feMerge>
    </filter>
    <filter id="seedHalo" x="-150%" y="-150%" width="400%" height="400%" color-interpolation-filters="sRGB">
      <feMorphology in="SourceAlpha" operator="dilate" radius="2" result="fat"/>
      <feGaussianBlur in="fat" stdDeviation="9" result="soft"/>
      <feFlood flood-color="#8B5CF6" flood-opacity="0.9" result="tint"/>
      <feComposite in="tint" in2="soft" operator="in" result="ring"/>
      <feMerge><feMergeNode in="ring"/><feMergeNode in="SourceGraphic"/></feMerge>
    </filter>
    <filter id="aurora" x="-40%" y="-40%" width="180%" height="180%" color-interpolation-filters="sRGB">
      <feGaussianBlur stdDeviation="110"/>
    </filter>
    <radialGradient id="vignette" cx="50%" cy="45%" r="78%">
      <stop offset="0.45" stop-color="#000000" stop-opacity="0"/>
      <stop offset="1" stop-color="#000000" stop-opacity="0.72"/>
    </radialGradient>
  </defs>
  <rect width="1280" height="640" fill="#05050C"/>
  <g filter="url(#aurora)">
      <ellipse cx="640" cy="200" rx="420" ry="260" fill="#8B5CF6" opacity="0.3"/>
      <ellipse cx="300" cy="520" rx="380" ry="220" fill="#170F3A" opacity="0.8"/>
      <ellipse cx="1030" cy="470" rx="360" ry="220" fill="#22D3EE" opacity="0.14"/>
      <ellipse cx="980" cy="90" rx="280" ry="160" fill="#FF5FA2" opacity="0.12"/>
    </g>
  <g>
    <circle cx="237.7" cy="147.6" r="0.86" fill="#EDEAFF" opacity="0.29"/>
    <circle cx="377.2" cy="276.2" r="2.11" fill="#FFC97A" opacity="0.54"/>
    <circle cx="353.1" cy="93.9" r="2.17" fill="#A78BFA" opacity="0.67"/>
    <circle cx="953.3" cy="607.6" r="2.03" fill="#EDEAFF" opacity="0.31"/>
    <circle cx="966.4" cy="361.0" r="1.37" fill="#EDEAFF" opacity="0.38"/>
    <circle cx="150.2" cy="524.6" r="2.04" fill="#EDEAFF" opacity="0.79"/>
    <circle cx="958.0" cy="86.3" r="1.82" fill="#FFC97A" opacity="0.43"/>
    <circle cx="259.4" cy="334.5" r="1.06" fill="#EDEAFF" opacity="0.44"/>
    <circle cx="167.4" cy="314.1" r="1.02" fill="#EDEAFF" opacity="0.30"/>
    <circle cx="93.8" cy="416.8" r="2.32" fill="#A78BFA" opacity="0.40"/>
    <circle cx="55.3" cy="90.7" r="2.05" fill="#EDEAFF" opacity="0.69"/>
    <circle cx="1134.3" cy="514.0" r="0.97" fill="#A78BFA" opacity="0.70"/>
    <circle cx="175.4" cy="621.6" r="1.69" fill="#EDEAFF" opacity="0.62"/>
    <circle cx="436.9" cy="189.0" r="0.90" fill="#FFC97A" opacity="0.59"/>
    <circle cx="288.7" cy="44.3" r="1.76" fill="#EDEAFF" opacity="0.51"/>
    <circle cx="118.6" cy="1.9" r="2.40" fill="#EDEAFF" opacity="0.22"/>
    <circle cx="764.5" cy="49.6" r="1.45" fill="#EDEAFF" opacity="0.38"/>
    <circle cx="428.5" cy="317.8" r="2.35" fill="#A78BFA" opacity="0.48"/>
    <circle cx="379.6" cy="20.3" r="1.50" fill="#EDEAFF" opacity="0.74"/>
    <circle cx="455.1" cy="156.3" r="1.12" fill="#EDEAFF" opacity="0.27"/>
    <circle cx="509.0" cy="55.5" r="1.96" fill="#FFC97A" opacity="0.54"/>
    <circle cx="990.5" cy="121.9" r="1.47" fill="#EDEAFF" opacity="0.51"/>
    <circle cx="1105.4" cy="71.6" r="2.08" fill="#EDEAFF" opacity="0.28"/>
    <circle cx="42.7" cy="82.1" r="1.25" fill="#A78BFA" opacity="0.43"/>
    <circle cx="55.8" cy="342.4" r="0.83" fill="#A78BFA" opacity="0.67"/>
    <circle cx="6.3" cy="158.8" r="2.16" fill="#EDEAFF" opacity="0.24"/>
    <circle cx="273.6" cy="459.8" r="1.80" fill="#A78BFA" opacity="0.76"/>
    <circle cx="1148.9" cy="73.8" r="0.85" fill="#EDEAFF" opacity="0.49"/>
    <circle cx="383.4" cy="615.6" r="1.14" fill="#FFC97A" opacity="0.20"/>
    <circle cx="38.9" cy="465.2" r="0.79" fill="#A78BFA" opacity="0.61"/>
    <circle cx="1035.6" cy="271.6" r="1.72" fill="#EDEAFF" opacity="0.69"/>
    <circle cx="975.4" cy="70.0" r="1.16" fill="#EDEAFF" opacity="0.80"/>
    <circle cx="1004.6" cy="288.1" r="0.61" fill="#EDEAFF" opacity="0.16"/>
    <circle cx="1199.7" cy="158.3" r="2.13" fill="#A78BFA" opacity="0.70"/>
    <circle cx="975.2" cy="309.8" r="1.07" fill="#EDEAFF" opacity="0.44"/>
    <circle cx="248.2" cy="240.4" r="1.46" fill="#EDEAFF" opacity="0.27"/>
    <circle cx="1051.2" cy="114.4" r="0.79" fill="#A78BFA" opacity="0.53"/>
    <circle cx="1068.2" cy="137.2" r="1.94" fill="#A78BFA" opacity="0.57"/>
    <circle cx="28.2" cy="551.9" r="0.86" fill="#FFC97A" opacity="0.69"/>
    <circle cx="68.6" cy="320.4" r="2.27" fill="#EDEAFF" opacity="0.31"/>
    <circle cx="311.9" cy="339.4" r="0.62" fill="#EDEAFF" opacity="0.44"/>
    <circle cx="282.2" cy="32.5" r="1.86" fill="#A78BFA" opacity="0.42"/>
    <circle cx="128.5" cy="585.1" r="2.28" fill="#A78BFA" opacity="0.68"/>
    <circle cx="170.9" cy="464.8" r="1.67" fill="#EDEAFF" opacity="0.18"/>
    <circle cx="1121.7" cy="243.9" r="2.07" fill="#EDEAFF" opacity="0.47"/>
    <circle cx="1194.2" cy="284.5" r="2.31" fill="#A78BFA" opacity="0.36"/>
    <circle cx="875.1" cy="240.2" r="0.74" fill="#A78BFA" opacity="0.46"/>
    <circle cx="1004.0" cy="631.1" r="1.41" fill="#A78BFA" opacity="0.41"/>
    <circle cx="102.3" cy="137.9" r="0.86" fill="#A78BFA" opacity="0.35"/>
    <circle cx="265.9" cy="597.4" r="1.13" fill="#EDEAFF" opacity="0.27"/>
    <circle cx="144.5" cy="82.3" r="0.72" fill="#EDEAFF" opacity="0.40"/>
    <circle cx="20.1" cy="446.9" r="0.69" fill="#A78BFA" opacity="0.29"/>
    <circle cx="1091.9" cy="99.2" r="0.70" fill="#EDEAFF" opacity="0.55"/>
    <circle cx="1000.8" cy="111.5" r="1.87" fill="#EDEAFF" opacity="0.42"/>
    <circle cx="709.1" cy="580.3" r="1.10" fill="#FFC97A" opacity="0.61"/>
    <circle cx="834.6" cy="102.8" r="2.14" fill="#A78BFA" opacity="0.78"/>
    <circle cx="281.1" cy="195.5" r="0.79" fill="#FFC97A" opacity="0.43"/>
    <circle cx="298.7" cy="212.3" r="1.25" fill="#EDEAFF" opacity="0.14"/>
    <circle cx="129.4" cy="510.6" r="2.07" fill="#EDEAFF" opacity="0.44"/>
    <circle cx="1.6" cy="333.1" r="1.04" fill="#EDEAFF" opacity="0.24"/>
    <circle cx="955.8" cy="68.4" r="1.94" fill="#A78BFA" opacity="0.51"/>
    <circle cx="1022.3" cy="383.5" r="1.99" fill="#A78BFA" opacity="0.46"/>
    <circle cx="26.1" cy="505.4" r="1.21" fill="#EDEAFF" opacity="0.42"/>
    <circle cx="760.5" cy="357.4" r="2.01" fill="#A78BFA" opacity="0.43"/>
    <circle cx="1140.4" cy="357.1" r="1.60" fill="#EDEAFF" opacity="0.26"/>
    <circle cx="54.6" cy="223.8" r="1.93" fill="#EDEAFF" opacity="0.44"/>
    <circle cx="987.0" cy="276.0" r="1.62" fill="#A78BFA" opacity="0.18"/>
    <circle cx="541.4" cy="25.0" r="1.86" fill="#EDEAFF" opacity="0.43"/>
    <circle cx="169.1" cy="613.8" r="0.75" fill="#EDEAFF" opacity="0.78"/>
    <circle cx="1197.8" cy="327.9" r="1.52" fill="#EDEAFF" opacity="0.18"/>
    <circle cx="306.7" cy="72.8" r="1.36" fill="#EDEAFF" opacity="0.76"/>
    <circle cx="45.8" cy="530.5" r="0.96" fill="#A78BFA" opacity="0.62"/>
    <circle cx="189.0" cy="508.0" r="1.90" fill="#EDEAFF" opacity="0.15"/>
    <circle cx="890.0" cy="615.3" r="1.80" fill="#EDEAFF" opacity="0.47"/>
    <circle cx="922.4" cy="42.1" r="1.55" fill="#EDEAFF" opacity="0.26"/>
    <circle cx="35.1" cy="399.9" r="1.90" fill="#A78BFA" opacity="0.73"/>
    <circle cx="182.7" cy="402.5" r="1.75" fill="#FFC97A" opacity="0.26"/>
    <circle cx="307.8" cy="334.9" r="2.02" fill="#EDEAFF" opacity="0.61"/>
    <circle cx="924.0" cy="327.9" r="0.91" fill="#EDEAFF" opacity="0.55"/>
    <circle cx="136.8" cy="283.2" r="1.02" fill="#EDEAFF" opacity="0.58"/>
    <circle cx="921.3" cy="297.0" r="0.99" fill="#A78BFA" opacity="0.32"/>
    <circle cx="770.3" cy="0.3" r="2.01" fill="#EDEAFF" opacity="0.52"/>
    <circle cx="347.0" cy="88.6" r="2.18" fill="#FFC97A" opacity="0.43"/>
    <circle cx="1140.2" cy="70.0" r="1.26" fill="#A78BFA" opacity="0.55"/>
    <circle cx="225.2" cy="364.4" r="2.18" fill="#EDEAFF" opacity="0.45"/>
  </g>
  <rect width="1280" height="640" fill="url(#vignette)"/>
  <g filter="url(#bloom)">
    <path d="M 858.4 72.0 Q 860.2 81.4 869.5 83.1 Q 860.2 84.9 858.4 94.2 Q 856.6 84.9 847.3 83.1 Q 856.6 81.4 858.4 72.0 Z" fill="#67E8F9" opacity="0.91"/>
    <path d="M 923.4 274.7 Q 925.4 285.4 936.2 287.4 Q 925.4 289.5 923.4 300.2 Q 921.3 289.5 910.6 287.4 Q 921.3 285.4 923.4 274.7 Z" fill="#67E8F9" opacity="0.91"/>
    <path d="M 149.2 64.1 Q 150.7 72.1 158.7 73.6 Q 150.7 75.1 149.2 83.0 Q 147.7 75.1 139.8 73.6 Q 147.7 72.1 149.2 64.1 Z" fill="#EDEAFF" opacity="0.88"/>
    <path d="M 1032.3 345.1 Q 1034.1 354.5 1043.5 356.3 Q 1034.1 358.1 1032.3 367.5 Q 1030.5 358.1 1021.1 356.3 Q 1030.5 354.5 1032.3 345.1 Z" fill="#EDEAFF" opacity="0.71"/>
    <path d="M 50.5 397.8 Q 52.5 408.3 63.1 410.4 Q 52.5 412.4 50.5 422.9 Q 48.5 412.4 38.0 410.4 Q 48.5 408.3 50.5 397.8 Z" fill="#EDEAFF" opacity="0.85"/>
    <path d="M 68.2 225.3 Q 69.6 232.7 77.0 234.1 Q 69.6 235.5 68.2 242.9 Q 66.8 235.5 59.4 234.1 Q 66.8 232.7 68.2 225.3 Z" fill="#67E8F9" opacity="0.88"/>
    <path d="M 1115.8 144.8 Q 1117.7 154.6 1127.4 156.4 Q 1117.7 158.3 1115.8 168.0 Q 1114.0 158.3 1104.2 156.4 Q 1114.0 154.6 1115.8 144.8 Z" fill="#EDEAFF" opacity="0.83"/>
  </g>
  <g transform="translate(496 62) scale(1.125)">
    <g filter="url(#bloom)">
      <circle cx="128" cy="128" r="112" fill="none" stroke="#8B5CF6" stroke-opacity="0.34" stroke-width="2.2" stroke-dasharray="2 9" stroke-linecap="round"/>
      <path d="M 128 107 C 136.35 83.06 184.59 74.31 214.66 112.72" fill="none" stroke="url(#lane0)" stroke-width="15" stroke-linecap="round"/>
      <path d="M 146.19 138.5 C 162.75 157.7 146.2 203.86 97.9 210.69" fill="none" stroke="url(#lane1)" stroke-width="15" stroke-linecap="round"/>
      <path d="M 109.81 138.5 C 84.91 143.24 53.2 105.84 71.43 60.59" fill="none" stroke="url(#lane2)" stroke-width="15" stroke-linecap="round"/>
      <circle cx="214.66" cy="112.72" r="11.5" fill="#8B5CF6"/>
      <circle cx="214.66" cy="112.72" r="3.68" fill="#FFFFFF" opacity="0.85"/>
      <circle cx="97.9" cy="210.69" r="11.5" fill="#22D3EE"/>
      <circle cx="97.9" cy="210.69" r="3.68" fill="#FFFFFF" opacity="0.85"/>
      <circle cx="71.43" cy="60.59" r="11.5" fill="#FF5FA2"/>
      <circle cx="71.43" cy="60.59" r="3.68" fill="#FFFFFF" opacity="0.85"/>
    </g>
    <g filter="url(#seedHalo)">
      <circle cx="128" cy="128" r="18" fill="url(#seed)"/>
      <circle cx="128" cy="128" r="6.12" fill="#FFFFFF"/>
    </g>
  </g>
  <g font-family="Fira Sans, Inter, DejaVu Sans, sans-serif" text-anchor="middle">
    <text x="640" y="454" font-size="104" font-weight="500" fill="#EDEAFF">olondunge</text>
    <text x="640" y="506" font-size="32" letter-spacing="8" fill="#A9A3D6">one model, many minds</text>
  </g>
  <g font-family="Fira Mono, DejaVu Sans Mono, monospace" font-size="24" fill="#A9A3D6" opacity="0.85" text-anchor="middle" letter-spacing="1">
    <text x="640" y="564">allocation MCP for Claude Code, Codex and Grok</text>
  </g>
</svg>
